M48
METRIC,LZ,000.000
;FILE_FORMAT=3:3
;TYPE=PLATED
;Layer: PTH_Through
;EasyEDA v6.5.40, 2024-08-21 00:56:45
;a67cddfb3fce44daa9051d46cbbcc19f,10
;Gerber Generator version 0.2
;Holesize 1 = 0.306 mm
T01C0.306
;Holesize 2 = 0.501 mm
T02C0.501
;Holesize 3 = 0.900 mm
T03C0.900
;Holesize 4 = 1.200 mm
T04C1.200
%
G05
G90
T01
X001072Y013928
X001072Y006428
X003572Y013928
X003572Y006428
X006072Y013928
X008572Y011428
X008572Y008928
X011072Y021428
X011072Y018928
X011072Y016428
X011072Y008928
X011072Y003928
X011072Y001428
X011072Y-001072
X013572Y021428
X013572Y018928
X013572Y016428
X013572Y011428
X013572Y008928
X013572Y003928
X013572Y001428
X013572Y-001072
X016072Y021428
X016072Y018928
X016072Y016428
X016072Y011428
X016072Y008928
X016072Y003928
X016072Y001428
X016072Y-001072
X018572Y021428
X018572Y018928
X018572Y016428
X018572Y008928
X018572Y003928
X018572Y001428
X018572Y-001072
X021072Y021428
X021072Y018928
X021072Y016428
X021072Y011428
X021072Y008928
X021072Y003928
X021072Y001428
X021072Y-001072
X023572Y021428
X023572Y018928
X023572Y016428
X023572Y013928
X023572Y006428
X023572Y003928
X023572Y001428
X023572Y-001072
X026072Y021428
X026072Y018928
X026072Y016428
X026072Y013928
X026072Y011428
X026072Y006428
X026072Y003928
X026072Y001428
X026072Y-001072
X028572Y021428
X028572Y018928
X028572Y016428
X028572Y013928
X028572Y011428
X026000Y008000
X028572Y006428
X028572Y003928
X028572Y001428
X028572Y-001072
X031072Y021428
X031072Y013928
X031072Y006428
X031072Y-001072
X033572Y021428
X033572Y018928
X033572Y016428
X033572Y013928
X033572Y011428
X033572Y008928
X033572Y006428
X033572Y003928
X033572Y001428
X033572Y-001072
X036072Y021428
X036072Y013928
X036072Y006428
X036072Y-001072
X038572Y021428
X038572Y013928
X038572Y006428
X038572Y-001072
X041072Y021428
X041072Y018928
X041072Y016428
X041072Y013928
X041072Y011428
X041072Y008928
X041072Y006428
X041072Y003928
X041072Y001428
X041072Y-001072
X043572Y021428
X043572Y013928
X043572Y006428
X043572Y-001072
T02
X001000Y009500G85X001000Y010500
X003500Y009500G85X003500Y010500
X006000Y009500G85X006000Y010500
T03
X011190Y013000
X018810Y013000
X011190Y007000
X018810Y007000
T04
X031800Y010650G85X031800Y009350
X037600Y010650G85X037600Y009350
X042900Y010650G85X042900Y009350
X031800Y002650G85X031800Y001350
X037600Y002650G85X037600Y001350
X042900Y002650G85X042900Y001350
X031800Y018651G85X031800Y017351
X037600Y018651G85X037600Y017351
X042900Y018651G85X042900Y017351
M30
