G04 Layer: TopPasteMaskLayer*
G04 EasyEDA v6.5.40, 2024-08-21 00:56:45*
G04 a67cddfb3fce44daa9051d46cbbcc19f,10*
G04 Gerber Generator version 0.2*
G04 Scale: 100 percent, Rotated: No, Reflected: No *
G04 Dimensions in millimeters *
G04 leading zeros omitted , absolute positions ,4 integer and 5 decimal *
%FSLAX45Y45*%
%MOMM*%

%ADD10C,0.0001*%

%LPD*%
G36*
X1334973Y1369009D02*
G01*
X1329994Y1363980D01*
X1329994Y1236014D01*
X1334973Y1230985D01*
X1449984Y1230985D01*
X1455013Y1236014D01*
X1454505Y1277975D01*
X1410512Y1277975D01*
X1410512Y1322984D01*
X1455521Y1322984D01*
X1455013Y1363980D01*
X1449984Y1369009D01*
G37*
G36*
X1550009Y1369009D02*
G01*
X1544980Y1363980D01*
X1545488Y1322984D01*
X1589481Y1322984D01*
X1589481Y1277975D01*
X1544980Y1277975D01*
X1544980Y1236014D01*
X1550009Y1230985D01*
X1664970Y1230985D01*
X1669999Y1236014D01*
X1669999Y1363980D01*
X1664970Y1369009D01*
G37*
G36*
X1334973Y769010D02*
G01*
X1329994Y763981D01*
X1329994Y636016D01*
X1334973Y630986D01*
X1449984Y630986D01*
X1455013Y636016D01*
X1454505Y677976D01*
X1410512Y677976D01*
X1410512Y722985D01*
X1455521Y722985D01*
X1455013Y763981D01*
X1449984Y769010D01*
G37*
G36*
X1550009Y769010D02*
G01*
X1544980Y763981D01*
X1545488Y722985D01*
X1589481Y722985D01*
X1589481Y677976D01*
X1544980Y677976D01*
X1544980Y636016D01*
X1550009Y630986D01*
X1664970Y630986D01*
X1669999Y636016D01*
X1669999Y763981D01*
X1664970Y769010D01*
G37*
M02*
