G04 Layer: TopLayer*
G04 EasyEDA v6.5.40, 2024-08-21 00:56:45*
G04 a67cddfb3fce44daa9051d46cbbcc19f,10*
G04 Gerber Generator version 0.2*
G04 Scale: 100 percent, Rotated: No, Reflected: No *
G04 Dimensions in millimeters *
G04 leading zeros omitted , absolute positions ,4 integer and 5 decimal *
%FSLAX45Y45*%
%MOMM*%

%AMMACRO1*21,1,$1,$2,0,0,$3*%
%ADD10C,0.5000*%
%ADD11MACRO1,1.377X1.1325X90.0000*%
%ADD12C,1.8796*%
%ADD13R,1.7000X3.5000*%
%ADD14R,1.0000X2.0000*%
%ADD15C,0.6100*%
%ADD16C,0.0116*%

%LPD*%
G36*
X1101547Y-174091D02*
G01*
X1089101Y-173126D01*
X1078788Y-170789D01*
X1068933Y-166979D01*
X1059738Y-161848D01*
X1051356Y-155448D01*
X1043940Y-147878D01*
X1037691Y-139395D01*
X1032713Y-130048D01*
X1029157Y-120142D01*
X1027023Y-109829D01*
X1025906Y-96266D01*
X1025906Y299669D01*
X1024991Y314502D01*
X1024483Y318363D01*
X1022045Y330708D01*
X1021029Y334467D01*
X1017016Y346354D01*
X1015492Y349961D01*
X1009954Y361238D01*
X1008024Y364591D01*
X1001014Y375056D01*
X998626Y378155D01*
X990346Y387604D01*
X987602Y390347D01*
X978153Y398627D01*
X975055Y401015D01*
X964590Y408025D01*
X961237Y409956D01*
X949960Y415493D01*
X946353Y417017D01*
X934466Y421030D01*
X930706Y422046D01*
X918362Y424484D01*
X914501Y424992D01*
X899668Y425907D01*
X101244Y425907D01*
X88747Y426872D01*
X78486Y429209D01*
X68630Y433019D01*
X59385Y438150D01*
X51003Y444550D01*
X43637Y452120D01*
X37388Y460603D01*
X32410Y469950D01*
X28803Y479856D01*
X26670Y490169D01*
X25908Y501243D01*
X25908Y866902D01*
X26619Y870661D01*
X28702Y873912D01*
X31851Y876147D01*
X35610Y877062D01*
X39420Y876503D01*
X44246Y874776D01*
X50546Y874064D01*
X68630Y874064D01*
X68630Y943660D01*
X36068Y943660D01*
X32156Y944422D01*
X28905Y946607D01*
X26670Y949909D01*
X25908Y953820D01*
X25908Y1046175D01*
X26670Y1050086D01*
X28905Y1053388D01*
X32156Y1055573D01*
X36068Y1056335D01*
X68630Y1056335D01*
X68630Y1125880D01*
X50546Y1125880D01*
X44246Y1125169D01*
X39420Y1123492D01*
X35610Y1122934D01*
X31851Y1123848D01*
X28702Y1126083D01*
X26619Y1129334D01*
X25908Y1133094D01*
X25908Y1498752D01*
X26873Y1511249D01*
X29209Y1521510D01*
X33020Y1531366D01*
X38150Y1540611D01*
X44551Y1548993D01*
X52120Y1556359D01*
X60604Y1562608D01*
X69951Y1567586D01*
X79857Y1571193D01*
X90170Y1573326D01*
X101244Y1574088D01*
X899668Y1574088D01*
X914501Y1575003D01*
X918362Y1575511D01*
X930706Y1577949D01*
X934466Y1578965D01*
X946353Y1582978D01*
X949960Y1584502D01*
X961237Y1590040D01*
X964590Y1591970D01*
X975055Y1598980D01*
X978153Y1601368D01*
X987602Y1609648D01*
X990346Y1612392D01*
X998626Y1621840D01*
X1001014Y1624939D01*
X1008024Y1635404D01*
X1009954Y1638757D01*
X1015492Y1650034D01*
X1017016Y1653641D01*
X1021029Y1665528D01*
X1022045Y1669288D01*
X1024483Y1681632D01*
X1024991Y1685493D01*
X1025906Y1700326D01*
X1025906Y2148738D01*
X1026871Y2161235D01*
X1029208Y2171547D01*
X1033018Y2181402D01*
X1038148Y2190597D01*
X1044549Y2198979D01*
X1052118Y2206396D01*
X1060602Y2212644D01*
X1069949Y2217572D01*
X1079855Y2221179D01*
X1090168Y2223312D01*
X1101242Y2224074D01*
X4398772Y2224074D01*
X4411218Y2223109D01*
X4421530Y2220772D01*
X4431385Y2216962D01*
X4440580Y2211832D01*
X4449013Y2205431D01*
X4456379Y2197912D01*
X4462627Y2189378D01*
X4467606Y2180082D01*
X4471162Y2170125D01*
X4473346Y2159812D01*
X4474108Y2148738D01*
X4474108Y-98755D01*
X4473092Y-111252D01*
X4470755Y-121513D01*
X4466996Y-131368D01*
X4461814Y-140614D01*
X4455414Y-148996D01*
X4447895Y-156362D01*
X4439361Y-162610D01*
X4430064Y-167589D01*
X4420158Y-171196D01*
X4409795Y-173329D01*
X4398772Y-174091D01*
G37*

%LPC*%
G36*
X4205579Y-914D02*
G01*
X4241139Y-914D01*
X4241139Y106172D01*
X4179062Y106172D01*
X4179062Y25552D01*
X4179773Y19253D01*
X4181703Y13766D01*
X4184802Y8890D01*
X4188866Y4775D01*
X4193794Y1727D01*
X4199229Y-203D01*
G37*
G36*
X4338828Y-914D02*
G01*
X4374438Y-914D01*
X4380738Y-203D01*
X4386224Y1727D01*
X4391101Y4775D01*
X4395216Y8890D01*
X4398264Y13766D01*
X4400194Y19253D01*
X4400905Y25552D01*
X4400905Y106172D01*
X4338828Y106172D01*
G37*
G36*
X3095548Y-914D02*
G01*
X3264408Y-914D01*
X3270758Y-203D01*
X3276193Y1727D01*
X3281121Y4775D01*
X3285185Y8890D01*
X3288284Y13766D01*
X3290214Y19253D01*
X3290925Y25552D01*
X3290925Y374446D01*
X3290214Y380746D01*
X3288284Y386232D01*
X3285185Y391109D01*
X3281121Y395224D01*
X3276193Y398272D01*
X3270758Y400202D01*
X3264408Y400913D01*
X3095548Y400913D01*
X3089249Y400202D01*
X3083763Y398272D01*
X3078886Y395224D01*
X3074771Y391109D01*
X3071723Y386232D01*
X3069793Y380746D01*
X3069082Y374446D01*
X3069082Y25552D01*
X3069793Y19253D01*
X3071723Y13766D01*
X3074771Y8890D01*
X3078886Y4775D01*
X3083763Y1727D01*
X3089249Y-203D01*
G37*
G36*
X3675583Y-914D02*
G01*
X3844442Y-914D01*
X3850741Y-203D01*
X3856228Y1727D01*
X3861104Y4775D01*
X3865219Y8890D01*
X3868267Y13766D01*
X3870198Y19253D01*
X3870909Y25552D01*
X3870909Y374446D01*
X3870198Y380746D01*
X3868267Y386232D01*
X3865219Y391109D01*
X3861104Y395224D01*
X3856228Y398272D01*
X3850741Y400202D01*
X3844442Y400913D01*
X3675583Y400913D01*
X3669233Y400202D01*
X3663797Y398272D01*
X3658870Y395224D01*
X3655009Y391312D01*
X3651707Y389128D01*
X3647846Y388366D01*
X3643934Y389128D01*
X3640632Y391312D01*
X3496005Y535990D01*
X3492601Y539140D01*
X3489045Y541832D01*
X3485286Y544220D01*
X3481374Y546252D01*
X3477260Y547979D01*
X3473043Y549300D01*
X3468674Y550265D01*
X3464306Y550824D01*
X3459632Y551027D01*
X1525168Y551027D01*
X1521256Y551789D01*
X1518005Y554024D01*
X1474063Y597916D01*
X1471879Y601218D01*
X1471117Y605078D01*
X1471879Y608990D01*
X1474063Y612292D01*
X1476806Y615035D01*
X1479905Y619912D01*
X1481836Y625398D01*
X1482547Y631698D01*
X1482547Y768299D01*
X1481836Y774598D01*
X1479905Y780084D01*
X1476806Y784961D01*
X1472742Y789076D01*
X1467815Y792124D01*
X1462379Y794054D01*
X1456029Y794766D01*
X1343914Y794766D01*
X1337614Y794054D01*
X1332128Y792124D01*
X1327251Y789076D01*
X1323136Y784961D01*
X1320088Y780084D01*
X1318158Y774598D01*
X1317447Y768299D01*
X1317447Y761085D01*
X1316685Y757174D01*
X1314500Y753872D01*
X1311198Y751687D01*
X1307287Y750925D01*
X1233779Y750925D01*
X1230376Y751484D01*
X1227378Y753160D01*
X1225143Y755751D01*
X1216812Y769264D01*
X1207566Y780745D01*
X1197000Y791006D01*
X1185214Y799896D01*
X1172413Y807313D01*
X1158849Y813053D01*
X1144625Y817067D01*
X1130046Y819353D01*
X1115314Y819810D01*
X1100632Y818438D01*
X1086205Y815289D01*
X1072286Y810361D01*
X1059078Y803808D01*
X1046784Y795680D01*
X1035558Y786028D01*
X1025601Y775157D01*
X1017066Y763117D01*
X1013409Y756259D01*
X1011123Y753414D01*
X1008024Y751535D01*
X1004468Y750925D01*
X525272Y750925D01*
X521411Y751687D01*
X518109Y753872D01*
X410413Y861568D01*
X408381Y864514D01*
X407466Y868070D01*
X407873Y871677D01*
X409549Y874877D01*
X412191Y877366D01*
X416102Y879805D01*
X420217Y883869D01*
X423265Y888796D01*
X425196Y894232D01*
X425907Y900582D01*
X425907Y1099413D01*
X425196Y1105763D01*
X423265Y1111199D01*
X420217Y1116126D01*
X416102Y1120190D01*
X411226Y1123289D01*
X405739Y1125169D01*
X399440Y1125880D01*
X300583Y1125880D01*
X294233Y1125169D01*
X288798Y1123289D01*
X283870Y1120190D01*
X279806Y1116126D01*
X276707Y1111199D01*
X274828Y1105763D01*
X274116Y1099413D01*
X274116Y900582D01*
X274828Y894232D01*
X276707Y888796D01*
X279806Y883869D01*
X283870Y879805D01*
X288798Y876706D01*
X292303Y875487D01*
X295859Y873353D01*
X298246Y869950D01*
X299110Y865886D01*
X299110Y850188D01*
X299313Y845566D01*
X299872Y841146D01*
X300837Y836828D01*
X302158Y832561D01*
X303885Y828497D01*
X305917Y824534D01*
X308305Y820775D01*
X310997Y817270D01*
X314147Y813816D01*
X463854Y664159D01*
X467258Y661009D01*
X470814Y658317D01*
X474573Y655929D01*
X478485Y653846D01*
X482600Y652170D01*
X486816Y650849D01*
X491185Y649884D01*
X495554Y649274D01*
X500227Y649071D01*
X1004468Y649071D01*
X1008024Y648462D01*
X1011123Y646582D01*
X1013409Y643737D01*
X1017066Y636879D01*
X1025601Y624840D01*
X1035558Y613918D01*
X1046784Y604316D01*
X1059078Y596188D01*
X1072286Y589635D01*
X1086205Y584708D01*
X1100632Y581558D01*
X1115314Y580186D01*
X1130046Y580644D01*
X1144625Y582930D01*
X1158849Y586943D01*
X1172413Y592683D01*
X1185214Y600100D01*
X1197000Y608990D01*
X1207566Y619252D01*
X1216812Y630732D01*
X1225143Y644245D01*
X1227378Y646836D01*
X1230376Y648512D01*
X1233779Y649071D01*
X1307287Y649071D01*
X1311198Y648309D01*
X1314500Y646125D01*
X1316685Y642823D01*
X1317447Y638911D01*
X1317447Y631698D01*
X1318158Y625398D01*
X1320088Y619912D01*
X1323136Y615035D01*
X1327251Y610920D01*
X1332128Y607872D01*
X1337614Y605942D01*
X1340358Y605637D01*
X1343609Y604723D01*
X1346403Y602742D01*
X1348384Y599948D01*
X1349298Y596696D01*
X1349959Y591007D01*
X1350873Y586790D01*
X1352194Y582523D01*
X1353921Y578459D01*
X1355953Y574497D01*
X1358341Y570738D01*
X1361033Y567232D01*
X1364183Y563778D01*
X1463700Y464261D01*
X1467154Y461111D01*
X1470660Y458419D01*
X1474419Y456031D01*
X1478381Y453999D01*
X1482445Y452272D01*
X1486712Y450951D01*
X1491030Y449986D01*
X1495450Y449427D01*
X1500073Y449224D01*
X3434587Y449224D01*
X3438448Y448462D01*
X3441750Y446227D01*
X3646119Y241858D01*
X3648303Y238607D01*
X3649065Y234696D01*
X3649065Y25552D01*
X3649776Y19253D01*
X3651707Y13766D01*
X3654806Y8890D01*
X3658870Y4775D01*
X3663797Y1727D01*
X3669233Y-203D01*
G37*
G36*
X4179062Y293827D02*
G01*
X4241139Y293827D01*
X4241139Y400913D01*
X4205579Y400913D01*
X4199229Y400202D01*
X4193794Y398272D01*
X4188866Y395224D01*
X4184802Y391109D01*
X4181703Y386232D01*
X4179773Y380746D01*
X4179062Y374446D01*
G37*
G36*
X4338828Y293827D02*
G01*
X4400905Y293827D01*
X4400905Y374446D01*
X4400194Y380746D01*
X4398264Y386232D01*
X4395216Y391109D01*
X4391101Y395224D01*
X4386224Y398272D01*
X4380738Y400202D01*
X4374438Y400913D01*
X4338828Y400913D01*
G37*
G36*
X1877314Y580186D02*
G01*
X1892046Y580644D01*
X1906625Y582930D01*
X1920849Y586943D01*
X1934413Y592683D01*
X1947214Y600100D01*
X1959000Y608990D01*
X1969566Y619252D01*
X1978812Y630732D01*
X1987143Y644245D01*
X1989378Y646836D01*
X1992426Y648512D01*
X1995779Y649122D01*
X2199690Y649122D01*
X2204313Y649325D01*
X2208733Y649884D01*
X2213051Y650849D01*
X2217318Y652170D01*
X2221382Y653897D01*
X2225344Y655929D01*
X2229104Y658317D01*
X2232609Y661009D01*
X2236063Y664159D01*
X2518003Y946099D01*
X2521254Y948334D01*
X2525166Y949096D01*
X2724759Y949096D01*
X2728671Y948334D01*
X2731922Y946099D01*
X2963824Y714197D01*
X2967278Y711047D01*
X2970784Y708355D01*
X2974543Y705967D01*
X2978505Y703935D01*
X2982569Y702208D01*
X2986836Y700887D01*
X2991154Y699922D01*
X2995574Y699363D01*
X3000197Y699160D01*
X3509822Y699160D01*
X3514445Y699363D01*
X3518865Y699922D01*
X3523183Y700887D01*
X3527450Y702208D01*
X3531514Y703935D01*
X3535476Y705967D01*
X3539236Y708355D01*
X3542741Y711047D01*
X3546195Y714197D01*
X3640632Y808685D01*
X3643934Y810869D01*
X3647795Y811631D01*
X3651707Y810869D01*
X3655009Y808685D01*
X3658870Y804773D01*
X3663797Y801725D01*
X3669233Y799795D01*
X3675583Y799084D01*
X3844442Y799084D01*
X3850741Y799795D01*
X3856228Y801725D01*
X3861104Y804773D01*
X3865219Y808888D01*
X3868267Y813765D01*
X3870198Y819251D01*
X3870909Y825550D01*
X3870909Y1174445D01*
X3870198Y1180744D01*
X3868267Y1186230D01*
X3865219Y1191107D01*
X3861104Y1195222D01*
X3856228Y1198270D01*
X3850741Y1200200D01*
X3844442Y1200912D01*
X3675583Y1200912D01*
X3669233Y1200200D01*
X3663797Y1198270D01*
X3658870Y1195222D01*
X3654806Y1191107D01*
X3651707Y1186230D01*
X3649776Y1180744D01*
X3649065Y1174445D01*
X3649065Y965301D01*
X3648303Y961440D01*
X3646119Y958138D01*
X3491890Y803960D01*
X3488639Y801725D01*
X3484727Y800963D01*
X3298088Y800963D01*
X3294329Y801674D01*
X3291078Y803808D01*
X3288842Y806907D01*
X3287979Y810666D01*
X3288537Y814476D01*
X3290214Y819251D01*
X3290925Y825550D01*
X3290925Y1174445D01*
X3290214Y1180744D01*
X3288284Y1186230D01*
X3285185Y1191107D01*
X3281121Y1195222D01*
X3276193Y1198270D01*
X3270758Y1200200D01*
X3264408Y1200912D01*
X3095548Y1200912D01*
X3089249Y1200200D01*
X3083763Y1198270D01*
X3078886Y1195222D01*
X3074771Y1191107D01*
X3071723Y1186230D01*
X3069793Y1180744D01*
X3069082Y1174445D01*
X3069082Y825550D01*
X3069793Y819251D01*
X3071469Y814476D01*
X3072028Y810666D01*
X3071114Y806907D01*
X3068878Y803808D01*
X3065678Y801674D01*
X3061868Y800963D01*
X3025292Y800963D01*
X3021380Y801725D01*
X3018129Y803960D01*
X2786227Y1035862D01*
X2782773Y1039012D01*
X2779268Y1041704D01*
X2775508Y1044092D01*
X2771546Y1046124D01*
X2767482Y1047851D01*
X2763215Y1049172D01*
X2758897Y1050137D01*
X2754477Y1050696D01*
X2749854Y1050899D01*
X2525166Y1050899D01*
X2521254Y1051661D01*
X2518003Y1053896D01*
X2236063Y1335836D01*
X2232609Y1338986D01*
X2229104Y1341678D01*
X2225344Y1344066D01*
X2221382Y1346098D01*
X2217318Y1347825D01*
X2213051Y1349146D01*
X2208733Y1350111D01*
X2204313Y1350670D01*
X2199690Y1350873D01*
X1995779Y1350873D01*
X1992426Y1351483D01*
X1989378Y1353159D01*
X1987143Y1355750D01*
X1978812Y1369263D01*
X1969566Y1380744D01*
X1959000Y1391005D01*
X1947214Y1399895D01*
X1934413Y1407312D01*
X1920849Y1413052D01*
X1906625Y1417066D01*
X1892046Y1419352D01*
X1877314Y1419809D01*
X1862632Y1418437D01*
X1848205Y1415288D01*
X1834286Y1410360D01*
X1821078Y1403807D01*
X1808784Y1395679D01*
X1797557Y1386027D01*
X1787601Y1375156D01*
X1779066Y1363116D01*
X1775409Y1356258D01*
X1773123Y1353413D01*
X1770024Y1351534D01*
X1766468Y1350924D01*
X1692706Y1350924D01*
X1688795Y1351686D01*
X1685493Y1353870D01*
X1683308Y1357172D01*
X1682546Y1361084D01*
X1682546Y1368298D01*
X1681835Y1374597D01*
X1679905Y1380083D01*
X1676857Y1384960D01*
X1672742Y1389075D01*
X1667865Y1392123D01*
X1662379Y1394053D01*
X1656080Y1394764D01*
X1543964Y1394764D01*
X1537614Y1394053D01*
X1532178Y1392123D01*
X1527251Y1389075D01*
X1523187Y1384960D01*
X1520088Y1380083D01*
X1518158Y1374597D01*
X1517446Y1368298D01*
X1517446Y1231696D01*
X1518158Y1225397D01*
X1520088Y1219911D01*
X1523187Y1215034D01*
X1527251Y1210919D01*
X1532178Y1207871D01*
X1537614Y1205941D01*
X1543964Y1205230D01*
X1656080Y1205230D01*
X1662379Y1205941D01*
X1667865Y1207871D01*
X1672742Y1210919D01*
X1676857Y1215034D01*
X1679905Y1219911D01*
X1681835Y1225397D01*
X1682546Y1231696D01*
X1682546Y1238910D01*
X1683308Y1242822D01*
X1685493Y1246124D01*
X1688795Y1248308D01*
X1692706Y1249070D01*
X1766468Y1249070D01*
X1770024Y1248460D01*
X1773123Y1246581D01*
X1775409Y1243736D01*
X1779066Y1236878D01*
X1787601Y1224838D01*
X1797557Y1213916D01*
X1808784Y1204315D01*
X1821078Y1196187D01*
X1834286Y1189634D01*
X1848205Y1184706D01*
X1862632Y1181557D01*
X1877314Y1180185D01*
X1892046Y1180642D01*
X1906625Y1182928D01*
X1920849Y1186942D01*
X1934413Y1192682D01*
X1947214Y1200099D01*
X1959000Y1208989D01*
X1969566Y1219250D01*
X1978812Y1230731D01*
X1987092Y1244244D01*
X1989378Y1246784D01*
X1992375Y1248460D01*
X1995779Y1249070D01*
X2174595Y1249070D01*
X2178507Y1248308D01*
X2181758Y1246073D01*
X2420670Y1007160D01*
X2422906Y1003909D01*
X2423668Y999998D01*
X2422906Y996086D01*
X2420670Y992835D01*
X2181758Y753922D01*
X2178507Y751687D01*
X2174595Y750925D01*
X1995779Y750925D01*
X1992375Y751535D01*
X1989378Y753211D01*
X1987092Y755751D01*
X1978812Y769264D01*
X1969566Y780745D01*
X1959000Y791006D01*
X1947214Y799896D01*
X1934413Y807313D01*
X1920849Y813053D01*
X1906625Y817067D01*
X1892046Y819353D01*
X1877314Y819810D01*
X1862632Y818438D01*
X1848205Y815289D01*
X1834286Y810361D01*
X1821078Y803808D01*
X1808784Y795680D01*
X1797557Y786028D01*
X1787601Y775157D01*
X1779066Y763117D01*
X1775409Y756310D01*
X1773174Y753465D01*
X1770024Y751586D01*
X1766468Y750925D01*
X1692706Y750925D01*
X1688795Y751687D01*
X1685493Y753922D01*
X1683308Y757224D01*
X1682546Y761085D01*
X1682546Y768299D01*
X1681835Y774598D01*
X1679905Y780084D01*
X1676857Y784961D01*
X1672742Y789076D01*
X1667865Y792124D01*
X1662379Y794054D01*
X1656080Y794766D01*
X1543964Y794766D01*
X1537614Y794054D01*
X1532178Y792124D01*
X1527251Y789076D01*
X1523187Y784961D01*
X1520088Y780084D01*
X1518158Y774598D01*
X1517446Y768299D01*
X1517446Y631698D01*
X1518158Y625398D01*
X1520088Y619912D01*
X1523187Y615035D01*
X1527251Y610920D01*
X1532178Y607872D01*
X1537614Y605942D01*
X1543964Y605231D01*
X1656080Y605231D01*
X1662379Y605942D01*
X1667865Y607872D01*
X1672742Y610920D01*
X1676857Y615035D01*
X1679905Y619912D01*
X1681835Y625398D01*
X1682546Y631698D01*
X1682546Y638962D01*
X1683308Y642823D01*
X1685493Y646125D01*
X1688795Y648360D01*
X1692706Y649122D01*
X1766468Y649122D01*
X1770024Y648462D01*
X1773123Y646582D01*
X1775409Y643737D01*
X1779066Y636879D01*
X1787601Y624840D01*
X1797557Y613918D01*
X1808784Y604316D01*
X1821078Y596188D01*
X1834286Y589635D01*
X1848205Y584708D01*
X1862632Y581558D01*
G37*
G36*
X4205579Y799084D02*
G01*
X4241139Y799084D01*
X4241139Y906170D01*
X4179062Y906170D01*
X4179062Y825550D01*
X4179773Y819251D01*
X4181703Y813765D01*
X4184802Y808888D01*
X4188866Y804773D01*
X4193794Y801725D01*
X4199229Y799795D01*
G37*
G36*
X4338828Y799084D02*
G01*
X4374438Y799084D01*
X4380738Y799795D01*
X4386224Y801725D01*
X4391101Y804773D01*
X4395216Y808888D01*
X4398264Y813765D01*
X4400194Y819251D01*
X4400905Y825550D01*
X4400905Y906170D01*
X4338828Y906170D01*
G37*
G36*
X131368Y874064D02*
G01*
X149453Y874064D01*
X155752Y874776D01*
X161188Y876706D01*
X166116Y879805D01*
X170180Y883869D01*
X173278Y888796D01*
X175209Y894232D01*
X175920Y900582D01*
X175920Y943660D01*
X131368Y943660D01*
G37*
G36*
X550570Y874064D02*
G01*
X649427Y874064D01*
X655726Y874776D01*
X661212Y876706D01*
X666089Y879805D01*
X670204Y883869D01*
X673303Y888796D01*
X675182Y894232D01*
X675894Y900582D01*
X675894Y1099413D01*
X675182Y1105763D01*
X673303Y1111199D01*
X670204Y1116126D01*
X666089Y1120190D01*
X661873Y1122832D01*
X659231Y1125321D01*
X657555Y1128522D01*
X657148Y1132128D01*
X658063Y1135684D01*
X660146Y1138631D01*
X768045Y1246124D01*
X771347Y1248308D01*
X775208Y1249070D01*
X1004468Y1249070D01*
X1008024Y1248460D01*
X1011123Y1246581D01*
X1013409Y1243736D01*
X1017066Y1236878D01*
X1025601Y1224838D01*
X1035558Y1213916D01*
X1046784Y1204315D01*
X1059078Y1196187D01*
X1072286Y1189634D01*
X1086205Y1184706D01*
X1100632Y1181557D01*
X1115314Y1180185D01*
X1130046Y1180642D01*
X1144625Y1182928D01*
X1158849Y1186942D01*
X1172413Y1192682D01*
X1185214Y1200099D01*
X1197000Y1208989D01*
X1207566Y1219250D01*
X1216812Y1230731D01*
X1225143Y1244244D01*
X1227378Y1246835D01*
X1230376Y1248511D01*
X1233779Y1249070D01*
X1307287Y1249070D01*
X1311198Y1248308D01*
X1314500Y1246124D01*
X1316685Y1242822D01*
X1317447Y1238910D01*
X1317447Y1231696D01*
X1318158Y1225397D01*
X1320088Y1219911D01*
X1323136Y1215034D01*
X1327251Y1210919D01*
X1332128Y1207871D01*
X1337614Y1205941D01*
X1343914Y1205230D01*
X1456029Y1205230D01*
X1462379Y1205941D01*
X1467815Y1207871D01*
X1472742Y1210919D01*
X1476806Y1215034D01*
X1479905Y1219911D01*
X1481836Y1225397D01*
X1482547Y1231696D01*
X1482547Y1368298D01*
X1481836Y1374597D01*
X1479905Y1380083D01*
X1476806Y1384960D01*
X1474063Y1387703D01*
X1471879Y1391005D01*
X1471117Y1394917D01*
X1471879Y1398778D01*
X1474063Y1402080D01*
X1518005Y1445971D01*
X1521256Y1448206D01*
X1525168Y1448968D01*
X3459530Y1448968D01*
X3464204Y1449171D01*
X3468573Y1449730D01*
X3472942Y1450695D01*
X3477158Y1452016D01*
X3481273Y1453743D01*
X3485184Y1455775D01*
X3488944Y1458163D01*
X3492500Y1460855D01*
X3495903Y1464005D01*
X3640632Y1608734D01*
X3643934Y1610969D01*
X3647846Y1611731D01*
X3651707Y1610969D01*
X3655009Y1608734D01*
X3658870Y1604873D01*
X3663797Y1601825D01*
X3669233Y1599895D01*
X3675583Y1599184D01*
X3844442Y1599184D01*
X3850741Y1599895D01*
X3856228Y1601825D01*
X3861104Y1604873D01*
X3865219Y1608988D01*
X3868267Y1613865D01*
X3870198Y1619351D01*
X3870909Y1625650D01*
X3870909Y1974545D01*
X3870198Y1980844D01*
X3868267Y1986330D01*
X3865219Y1991207D01*
X3861104Y1995322D01*
X3856228Y1998370D01*
X3850741Y2000300D01*
X3844442Y2001012D01*
X3675583Y2001012D01*
X3669233Y2000300D01*
X3663797Y1998370D01*
X3658870Y1995322D01*
X3654806Y1991207D01*
X3651707Y1986330D01*
X3649776Y1980844D01*
X3649065Y1974545D01*
X3649065Y1765401D01*
X3648303Y1761489D01*
X3646119Y1758238D01*
X3441649Y1553768D01*
X3438347Y1551533D01*
X3434486Y1550771D01*
X1500073Y1550771D01*
X1495450Y1550568D01*
X1491030Y1550009D01*
X1486712Y1549044D01*
X1482445Y1547723D01*
X1478381Y1545996D01*
X1474419Y1543964D01*
X1470660Y1541576D01*
X1467154Y1538884D01*
X1463700Y1535734D01*
X1364183Y1436217D01*
X1361033Y1432763D01*
X1358341Y1429258D01*
X1355953Y1425498D01*
X1353921Y1421536D01*
X1352194Y1417472D01*
X1350873Y1413205D01*
X1349959Y1408988D01*
X1349298Y1403299D01*
X1348384Y1400048D01*
X1346403Y1397254D01*
X1343609Y1395272D01*
X1340358Y1394358D01*
X1337614Y1394053D01*
X1332128Y1392123D01*
X1327251Y1389075D01*
X1323136Y1384960D01*
X1320088Y1380083D01*
X1318158Y1374597D01*
X1317447Y1368298D01*
X1317447Y1361084D01*
X1316685Y1357172D01*
X1314500Y1353870D01*
X1311198Y1351686D01*
X1307287Y1350924D01*
X1233779Y1350924D01*
X1230376Y1351483D01*
X1227378Y1353159D01*
X1225143Y1355750D01*
X1216812Y1369263D01*
X1207566Y1380744D01*
X1197000Y1391005D01*
X1185214Y1399895D01*
X1172413Y1407312D01*
X1158849Y1413052D01*
X1144625Y1417066D01*
X1130046Y1419352D01*
X1115314Y1419809D01*
X1100632Y1418437D01*
X1086205Y1415288D01*
X1072286Y1410360D01*
X1059078Y1403807D01*
X1046784Y1395679D01*
X1035558Y1386027D01*
X1025601Y1375156D01*
X1017066Y1363116D01*
X1013409Y1356258D01*
X1011123Y1353413D01*
X1008024Y1351534D01*
X1004468Y1350924D01*
X750214Y1350924D01*
X745693Y1350721D01*
X741172Y1350111D01*
X736955Y1349197D01*
X732586Y1347825D01*
X728573Y1346200D01*
X724560Y1344066D01*
X720902Y1341780D01*
X717296Y1338986D01*
X713943Y1335938D01*
X564235Y1186840D01*
X560984Y1183335D01*
X558393Y1179931D01*
X555904Y1176070D01*
X553923Y1172210D01*
X552145Y1167993D01*
X550875Y1163929D01*
X549859Y1159459D01*
X549300Y1155192D01*
X549097Y1150416D01*
X549097Y1134110D01*
X548233Y1130046D01*
X545846Y1126642D01*
X542290Y1124508D01*
X538784Y1123289D01*
X533908Y1120190D01*
X529793Y1116126D01*
X526694Y1111199D01*
X524814Y1105763D01*
X524103Y1099413D01*
X524103Y900582D01*
X524814Y894232D01*
X526694Y888796D01*
X529793Y883869D01*
X533908Y879805D01*
X538784Y876706D01*
X544271Y874776D01*
G37*
G36*
X131368Y1056335D02*
G01*
X175920Y1056335D01*
X175920Y1099413D01*
X175209Y1105763D01*
X173278Y1111199D01*
X170180Y1116126D01*
X166116Y1120190D01*
X161188Y1123289D01*
X155752Y1125169D01*
X149453Y1125880D01*
X131368Y1125880D01*
G37*
G36*
X4179062Y1093825D02*
G01*
X4241139Y1093825D01*
X4241139Y1200912D01*
X4205579Y1200912D01*
X4199229Y1200200D01*
X4193794Y1198270D01*
X4188866Y1195222D01*
X4184802Y1191107D01*
X4181703Y1186230D01*
X4179773Y1180744D01*
X4179062Y1174445D01*
G37*
G36*
X4338828Y1093825D02*
G01*
X4400905Y1093825D01*
X4400905Y1174445D01*
X4400194Y1180744D01*
X4398264Y1186230D01*
X4395216Y1191107D01*
X4391101Y1195222D01*
X4386224Y1198270D01*
X4380738Y1200200D01*
X4374438Y1200912D01*
X4338828Y1200912D01*
G37*
G36*
X4338828Y1599184D02*
G01*
X4374438Y1599184D01*
X4380738Y1599895D01*
X4386224Y1601825D01*
X4391101Y1604873D01*
X4395216Y1608988D01*
X4398264Y1613865D01*
X4400194Y1619351D01*
X4400905Y1625650D01*
X4400905Y1706270D01*
X4338828Y1706270D01*
G37*
G36*
X4205579Y1599184D02*
G01*
X4241139Y1599184D01*
X4241139Y1706270D01*
X4179062Y1706270D01*
X4179062Y1625650D01*
X4179773Y1619351D01*
X4181703Y1613865D01*
X4184802Y1608988D01*
X4188866Y1604873D01*
X4193794Y1601825D01*
X4199229Y1599895D01*
G37*
G36*
X3095548Y1599184D02*
G01*
X3264408Y1599184D01*
X3270758Y1599895D01*
X3276193Y1601825D01*
X3281121Y1604873D01*
X3285185Y1608988D01*
X3288284Y1613865D01*
X3290214Y1619351D01*
X3290925Y1625650D01*
X3290925Y1974545D01*
X3290214Y1980844D01*
X3288284Y1986330D01*
X3285185Y1991207D01*
X3281121Y1995322D01*
X3276193Y1998370D01*
X3270758Y2000300D01*
X3264408Y2001012D01*
X3095548Y2001012D01*
X3089249Y2000300D01*
X3083763Y1998370D01*
X3078886Y1995322D01*
X3074771Y1991207D01*
X3071723Y1986330D01*
X3069793Y1980844D01*
X3069082Y1974545D01*
X3069082Y1625650D01*
X3069793Y1619351D01*
X3071723Y1613865D01*
X3074771Y1608988D01*
X3078886Y1604873D01*
X3083763Y1601825D01*
X3089249Y1599895D01*
G37*
G36*
X4338828Y1893925D02*
G01*
X4400905Y1893925D01*
X4400905Y1974545D01*
X4400194Y1980844D01*
X4398264Y1986330D01*
X4395216Y1991207D01*
X4391101Y1995322D01*
X4386224Y1998370D01*
X4380738Y2000300D01*
X4374438Y2001012D01*
X4338828Y2001012D01*
G37*
G36*
X4179062Y1893925D02*
G01*
X4241139Y1893925D01*
X4241139Y2001012D01*
X4205579Y2001012D01*
X4199229Y2000300D01*
X4193794Y1998370D01*
X4188866Y1995322D01*
X4184802Y1991207D01*
X4181703Y1986330D01*
X4179773Y1980844D01*
X4179062Y1974545D01*
G37*

%LPD*%
D10*
X600001Y1000000D02*
G01*
X600001Y1150620D01*
X749995Y1299997D01*
X1399997Y1299997D01*
X1880870Y1299971D02*
G01*
X2199893Y1299971D01*
X2499868Y999997D01*
X2199893Y700023D01*
X1599945Y700023D01*
X1599996Y1299997D02*
G01*
X1880996Y1299997D01*
X2499868Y999997D02*
G01*
X2750058Y999997D01*
X2999993Y750062D01*
X3510025Y750062D01*
X3759961Y999997D01*
X1400047Y1299971D02*
G01*
X1400047Y1400047D01*
X1499870Y1499870D01*
X3459759Y1499870D01*
X3759987Y1800097D01*
X1400047Y700023D02*
G01*
X1400047Y599947D01*
X1499870Y500126D01*
X3459861Y500126D01*
X3759987Y199999D01*
X350012Y999997D02*
G01*
X350012Y849985D01*
X499998Y699998D01*
X1399997Y699998D01*
D11*
G01*
X1600001Y1299997D03*
G01*
X1399992Y1299997D03*
G01*
X1600001Y699998D03*
G01*
X1399992Y699998D03*
D12*
G01*
X1118996Y1299997D03*
G01*
X1880996Y1299997D03*
G01*
X1118996Y699998D03*
G01*
X1880996Y699998D03*
D13*
G01*
X3180003Y999997D03*
G01*
X3759987Y999997D03*
G01*
X4289983Y999997D03*
G01*
X3180003Y199999D03*
G01*
X3759987Y199999D03*
G01*
X4289983Y199999D03*
G01*
X3180003Y1800097D03*
G01*
X3759987Y1800097D03*
G01*
X4289983Y1800097D03*
D14*
G01*
X99999Y999997D03*
G01*
X350012Y999997D03*
G01*
X599998Y999997D03*
D15*
G01*
X107205Y1392791D03*
G01*
X107205Y642792D03*
G01*
X357205Y1392791D03*
G01*
X357205Y642792D03*
G01*
X607204Y1392791D03*
G01*
X857204Y1142791D03*
G01*
X857204Y892792D03*
G01*
X1107203Y2142789D03*
G01*
X1107203Y1892790D03*
G01*
X1107203Y1642790D03*
G01*
X1107203Y892792D03*
G01*
X1107203Y392793D03*
G01*
X1107203Y142793D03*
G01*
X1107203Y-107205D03*
G01*
X1357203Y2142789D03*
G01*
X1357203Y1892790D03*
G01*
X1357203Y1642790D03*
G01*
X1357203Y1142791D03*
G01*
X1357203Y892792D03*
G01*
X1357203Y392793D03*
G01*
X1357203Y142793D03*
G01*
X1357203Y-107205D03*
G01*
X1607202Y2142789D03*
G01*
X1607202Y1892790D03*
G01*
X1607202Y1642790D03*
G01*
X1607202Y1142791D03*
G01*
X1607202Y892792D03*
G01*
X1607202Y392793D03*
G01*
X1607202Y142793D03*
G01*
X1607202Y-107205D03*
G01*
X1857202Y2142789D03*
G01*
X1857202Y1892790D03*
G01*
X1857202Y1642790D03*
G01*
X1857202Y892792D03*
G01*
X1857202Y392793D03*
G01*
X1857202Y142793D03*
G01*
X1857202Y-107205D03*
G01*
X2107201Y2142789D03*
G01*
X2107201Y1892790D03*
G01*
X2107201Y1642790D03*
G01*
X2107201Y1142791D03*
G01*
X2107201Y892792D03*
G01*
X2107201Y392793D03*
G01*
X2107201Y142793D03*
G01*
X2107201Y-107205D03*
G01*
X2357201Y2142789D03*
G01*
X2357201Y1892790D03*
G01*
X2357201Y1642790D03*
G01*
X2357201Y1392791D03*
G01*
X2357201Y642792D03*
G01*
X2357201Y392793D03*
G01*
X2357201Y142793D03*
G01*
X2357201Y-107205D03*
G01*
X2607200Y2142789D03*
G01*
X2607200Y1892790D03*
G01*
X2607200Y1642790D03*
G01*
X2607200Y1392791D03*
G01*
X2607200Y1142791D03*
G01*
X2607200Y642792D03*
G01*
X2607200Y392793D03*
G01*
X2607200Y142793D03*
G01*
X2607200Y-107205D03*
G01*
X2857200Y2142789D03*
G01*
X2857200Y1892790D03*
G01*
X2857200Y1642790D03*
G01*
X2857200Y1392791D03*
G01*
X2857200Y1142791D03*
G01*
X2599994Y799998D03*
G01*
X2857200Y642792D03*
G01*
X2857200Y392793D03*
G01*
X2857200Y142793D03*
G01*
X2857200Y-107205D03*
G01*
X3107199Y2142789D03*
G01*
X3107199Y1392791D03*
G01*
X3107199Y642792D03*
G01*
X3107199Y-107205D03*
G01*
X3357199Y2142789D03*
G01*
X3357199Y1892790D03*
G01*
X3357199Y1642790D03*
G01*
X3357199Y1392791D03*
G01*
X3357199Y1142791D03*
G01*
X3357199Y892792D03*
G01*
X3357199Y642792D03*
G01*
X3357199Y392793D03*
G01*
X3357199Y142793D03*
G01*
X3357199Y-107205D03*
G01*
X3607198Y2142789D03*
G01*
X3607198Y1392791D03*
G01*
X3607198Y642792D03*
G01*
X3607198Y-107205D03*
G01*
X3857198Y2142789D03*
G01*
X3857198Y1392791D03*
G01*
X3857198Y642792D03*
G01*
X3857198Y-107205D03*
G01*
X4107197Y2142789D03*
G01*
X4107197Y1892790D03*
G01*
X4107197Y1642790D03*
G01*
X4107197Y1392791D03*
G01*
X4107197Y1142791D03*
G01*
X4107197Y892792D03*
G01*
X4107197Y642792D03*
G01*
X4107197Y392793D03*
G01*
X4107197Y142793D03*
G01*
X4107197Y-107205D03*
G01*
X4357197Y2142789D03*
G01*
X4357197Y1392791D03*
G01*
X4357197Y642792D03*
G01*
X4357197Y-107205D03*
M02*
