G04 Layer: BottomSilkscreenLayer*
G04 EasyEDA v6.5.40, 2024-08-21 00:56:45*
G04 a67cddfb3fce44daa9051d46cbbcc19f,10*
G04 Gerber Generator version 0.2*
G04 Scale: 100 percent, Rotated: No, Reflected: No *
G04 Dimensions in millimeters *
G04 leading zeros omitted , absolute positions ,4 integer and 5 decimal *
%FSLAX45Y45*%
%MOMM*%

%ADD10C,0.2032*%

%LPD*%
D10*
X2892844Y1053609D02*
G01*
X2900972Y1061737D01*
X2913164Y1065801D01*
X2929420Y1065801D01*
X2941866Y1061737D01*
X2949994Y1053609D01*
X2949994Y1045481D01*
X2945930Y1037099D01*
X2941866Y1033035D01*
X2933738Y1028971D01*
X2909100Y1020843D01*
X2900972Y1016779D01*
X2896908Y1012715D01*
X2892844Y1004333D01*
X2892844Y992141D01*
X2900972Y984013D01*
X2913164Y979949D01*
X2929420Y979949D01*
X2941866Y984013D01*
X2949994Y992141D01*
X2853474Y1065801D02*
G01*
X2853474Y996205D01*
X2849410Y984013D01*
X2841282Y979949D01*
X2832900Y979949D01*
X2865666Y1037099D02*
G01*
X2836964Y1037099D01*
X2805976Y1012715D02*
G01*
X2756954Y1012715D01*
X2756954Y1020843D01*
X2761018Y1028971D01*
X2765082Y1033035D01*
X2773210Y1037099D01*
X2785656Y1037099D01*
X2793784Y1033035D01*
X2801912Y1024907D01*
X2805976Y1012715D01*
X2805976Y1004333D01*
X2801912Y992141D01*
X2793784Y984013D01*
X2785656Y979949D01*
X2773210Y979949D01*
X2765082Y984013D01*
X2756954Y992141D01*
X2730030Y1037099D02*
G01*
X2730030Y979949D01*
X2730030Y1012715D02*
G01*
X2725712Y1024907D01*
X2717584Y1033035D01*
X2709456Y1037099D01*
X2697264Y1037099D01*
X2670086Y1012715D02*
G01*
X2621064Y1012715D01*
X2621064Y1020843D01*
X2625128Y1028971D01*
X2629192Y1033035D01*
X2637574Y1037099D01*
X2649766Y1037099D01*
X2657894Y1033035D01*
X2666022Y1024907D01*
X2670086Y1012715D01*
X2670086Y1004333D01*
X2666022Y992141D01*
X2657894Y984013D01*
X2649766Y979949D01*
X2637574Y979949D01*
X2629192Y984013D01*
X2621064Y992141D01*
X2573566Y1037099D02*
G01*
X2581694Y1033035D01*
X2590076Y1024907D01*
X2594140Y1012715D01*
X2594140Y1004333D01*
X2590076Y992141D01*
X2581694Y984013D01*
X2573566Y979949D01*
X2561374Y979949D01*
X2553246Y984013D01*
X2545118Y992141D01*
X2540800Y1004333D01*
X2540800Y1012715D01*
X2545118Y1024907D01*
X2553246Y1033035D01*
X2561374Y1037099D01*
X2573566Y1037099D01*
X2438692Y1065801D02*
G01*
X2438692Y996205D01*
X2434628Y984013D01*
X2426246Y979949D01*
X2418118Y979949D01*
X2450884Y1037099D02*
G01*
X2422182Y1037099D01*
X2370620Y1037099D02*
G01*
X2379002Y1033035D01*
X2387130Y1024907D01*
X2391194Y1012715D01*
X2391194Y1004333D01*
X2387130Y992141D01*
X2379002Y984013D01*
X2370620Y979949D01*
X2358428Y979949D01*
X2350300Y984013D01*
X2342172Y992141D01*
X2338108Y1004333D01*
X2338108Y1012715D01*
X2342172Y1024907D01*
X2350300Y1033035D01*
X2358428Y1037099D01*
X2370620Y1037099D01*
X2247938Y1037099D02*
G01*
X2247938Y979949D01*
X2247938Y1020843D02*
G01*
X2235746Y1033035D01*
X2227618Y1037099D01*
X2215172Y1037099D01*
X2207044Y1033035D01*
X2202980Y1020843D01*
X2202980Y979949D01*
X2202980Y1020843D02*
G01*
X2190788Y1033035D01*
X2182660Y1037099D01*
X2170214Y1037099D01*
X2162086Y1033035D01*
X2158022Y1020843D01*
X2158022Y979949D01*
X2110524Y1037099D02*
G01*
X2118652Y1033035D01*
X2126780Y1024907D01*
X2131098Y1012715D01*
X2131098Y1004333D01*
X2126780Y992141D01*
X2118652Y984013D01*
X2110524Y979949D01*
X2098332Y979949D01*
X2090204Y984013D01*
X2081822Y992141D01*
X2077758Y1004333D01*
X2077758Y1012715D01*
X2081822Y1024907D01*
X2090204Y1033035D01*
X2098332Y1037099D01*
X2110524Y1037099D01*
X2050834Y1037099D02*
G01*
X2050834Y979949D01*
X2050834Y1020843D02*
G01*
X2038642Y1033035D01*
X2030260Y1037099D01*
X2018068Y1037099D01*
X2009940Y1033035D01*
X2005876Y1020843D01*
X2005876Y979949D01*
X1958378Y1037099D02*
G01*
X1966506Y1033035D01*
X1974634Y1024907D01*
X1978698Y1012715D01*
X1978698Y1004333D01*
X1974634Y992141D01*
X1966506Y984013D01*
X1958378Y979949D01*
X1946186Y979949D01*
X1937804Y984013D01*
X1929676Y992141D01*
X1925612Y1004333D01*
X1925612Y1012715D01*
X1929676Y1024907D01*
X1937804Y1033035D01*
X1946186Y1037099D01*
X1958378Y1037099D01*
X1835696Y1037099D02*
G01*
X1835696Y951247D01*
X1835696Y1024907D02*
G01*
X1827568Y1033035D01*
X1819186Y1037099D01*
X1806994Y1037099D01*
X1798866Y1033035D01*
X1790738Y1024907D01*
X1786420Y1012715D01*
X1786420Y1004333D01*
X1790738Y992141D01*
X1798866Y984013D01*
X1806994Y979949D01*
X1819186Y979949D01*
X1827568Y984013D01*
X1835696Y992141D01*
X1759496Y1065801D02*
G01*
X1759496Y979949D01*
X1732572Y1037099D02*
G01*
X1732572Y996205D01*
X1728508Y984013D01*
X1720380Y979949D01*
X1707934Y979949D01*
X1699806Y984013D01*
X1687614Y996205D01*
X1687614Y1037099D02*
G01*
X1687614Y979949D01*
X1611414Y1037099D02*
G01*
X1611414Y971821D01*
X1615478Y959375D01*
X1619542Y955311D01*
X1627924Y951247D01*
X1640116Y951247D01*
X1648244Y955311D01*
X1611414Y1024907D02*
G01*
X1619542Y1033035D01*
X1627924Y1037099D01*
X1640116Y1037099D01*
X1648244Y1033035D01*
X1656372Y1024907D01*
X1660436Y1012715D01*
X1660436Y1004333D01*
X1656372Y992141D01*
X1648244Y984013D01*
X1640116Y979949D01*
X1627924Y979949D01*
X1619542Y984013D01*
X1611414Y992141D01*
X1472476Y1037099D02*
G01*
X1472476Y979949D01*
X1472476Y1024907D02*
G01*
X1480604Y1033035D01*
X1488732Y1037099D01*
X1500924Y1037099D01*
X1509052Y1033035D01*
X1517434Y1024907D01*
X1521498Y1012715D01*
X1521498Y1004333D01*
X1517434Y992141D01*
X1509052Y984013D01*
X1500924Y979949D01*
X1488732Y979949D01*
X1480604Y984013D01*
X1472476Y992141D01*
X1396276Y1065801D02*
G01*
X1396276Y979949D01*
X1396276Y1024907D02*
G01*
X1404404Y1033035D01*
X1412532Y1037099D01*
X1424978Y1037099D01*
X1433106Y1033035D01*
X1441234Y1024907D01*
X1445298Y1012715D01*
X1445298Y1004333D01*
X1441234Y992141D01*
X1433106Y984013D01*
X1424978Y979949D01*
X1412532Y979949D01*
X1404404Y984013D01*
X1396276Y992141D01*
X1320076Y1037099D02*
G01*
X1320076Y979949D01*
X1320076Y1024907D02*
G01*
X1328458Y1033035D01*
X1336586Y1037099D01*
X1348778Y1037099D01*
X1356906Y1033035D01*
X1365288Y1024907D01*
X1369352Y1012715D01*
X1369352Y1004333D01*
X1365288Y992141D01*
X1356906Y984013D01*
X1348778Y979949D01*
X1336586Y979949D01*
X1328458Y984013D01*
X1320076Y992141D01*
X1293152Y1037099D02*
G01*
X1293152Y951247D01*
X1293152Y1024907D02*
G01*
X1285024Y1033035D01*
X1276896Y1037099D01*
X1264450Y1037099D01*
X1256322Y1033035D01*
X1248194Y1024907D01*
X1244130Y1012715D01*
X1244130Y1004333D01*
X1248194Y992141D01*
X1256322Y984013D01*
X1264450Y979949D01*
X1276896Y979949D01*
X1285024Y984013D01*
X1293152Y992141D01*
X1204760Y1065801D02*
G01*
X1204760Y996205D01*
X1200696Y984013D01*
X1192568Y979949D01*
X1184440Y979949D01*
X1217206Y1037099D02*
G01*
X1188504Y1037099D01*
X1157262Y1012715D02*
G01*
X1108240Y1012715D01*
X1108240Y1020843D01*
X1112304Y1028971D01*
X1116368Y1033035D01*
X1124750Y1037099D01*
X1136942Y1037099D01*
X1145070Y1033035D01*
X1153198Y1024907D01*
X1157262Y1012715D01*
X1157262Y1004333D01*
X1153198Y992141D01*
X1145070Y984013D01*
X1136942Y979949D01*
X1124750Y979949D01*
X1116368Y984013D01*
X1108240Y992141D01*
X1081316Y1037099D02*
G01*
X1081316Y979949D01*
X1081316Y1012715D02*
G01*
X1077252Y1024907D01*
X1069124Y1033035D01*
X1060742Y1037099D01*
X1048550Y1037099D01*
X2949994Y790829D02*
G01*
X2917228Y704977D01*
X2884462Y790829D02*
G01*
X2917228Y704977D01*
X2857538Y737743D02*
G01*
X2808516Y737743D01*
X2808516Y745870D01*
X2812580Y753998D01*
X2816644Y758062D01*
X2824772Y762127D01*
X2836964Y762127D01*
X2845346Y758062D01*
X2853474Y749935D01*
X2857538Y737743D01*
X2857538Y729361D01*
X2853474Y717169D01*
X2845346Y709040D01*
X2836964Y704977D01*
X2824772Y704977D01*
X2816644Y709040D01*
X2808516Y717169D01*
X2781338Y762127D02*
G01*
X2781338Y704977D01*
X2781338Y737743D02*
G01*
X2777274Y749935D01*
X2769146Y758062D01*
X2761018Y762127D01*
X2748826Y762127D01*
X2676690Y749935D02*
G01*
X2680754Y758062D01*
X2693200Y762127D01*
X2705392Y762127D01*
X2717584Y758062D01*
X2721648Y749935D01*
X2717584Y741806D01*
X2709456Y737743D01*
X2688882Y733425D01*
X2680754Y729361D01*
X2676690Y721232D01*
X2676690Y717169D01*
X2680754Y709040D01*
X2693200Y704977D01*
X2705392Y704977D01*
X2717584Y709040D01*
X2721648Y717169D01*
X2649766Y790829D02*
G01*
X2645702Y786764D01*
X2641638Y790829D01*
X2645702Y794893D01*
X2649766Y790829D01*
X2645702Y762127D02*
G01*
X2645702Y704977D01*
X2594140Y762127D02*
G01*
X2602268Y758062D01*
X2610396Y749935D01*
X2614460Y737743D01*
X2614460Y729361D01*
X2610396Y717169D01*
X2602268Y709040D01*
X2594140Y704977D01*
X2581694Y704977D01*
X2573566Y709040D01*
X2565438Y717169D01*
X2561374Y729361D01*
X2561374Y737743D01*
X2565438Y749935D01*
X2573566Y758062D01*
X2581694Y762127D01*
X2594140Y762127D01*
X2534450Y762127D02*
G01*
X2534450Y704977D01*
X2534450Y745870D02*
G01*
X2522004Y758062D01*
X2513876Y762127D01*
X2501684Y762127D01*
X2493556Y758062D01*
X2489238Y745870D01*
X2489238Y704977D01*
X2399322Y774572D02*
G01*
X2391194Y778637D01*
X2379002Y790829D01*
X2379002Y704977D01*
X2347760Y725296D02*
G01*
X2351824Y721232D01*
X2347760Y717169D01*
X2343696Y721232D01*
X2347760Y725296D01*
X2292134Y790829D02*
G01*
X2304326Y786764D01*
X2312708Y774572D01*
X2316772Y753998D01*
X2316772Y741806D01*
X2312708Y721232D01*
X2304326Y709040D01*
X2292134Y704977D01*
X2284006Y704977D01*
X2271814Y709040D01*
X2263432Y721232D01*
X2259368Y741806D01*
X2259368Y753998D01*
X2263432Y774572D01*
X2271814Y786764D01*
X2284006Y790829D01*
X2292134Y790829D01*
M02*
